<?xml version="1.0" encoding="utf-8"?>
<!-- Generator: Adobe Illustrator 27.0.1, SVG Export Plug-In . SVG Version: 6.00 Build 0)  -->
<svg version="1.1" id="Layer_1" xmlns="http://www.w3.org/2000/svg" xmlns:xlink="http://www.w3.org/1999/xlink" x="0px" y="0px"
	 viewBox="0 0 2000 2000" style="enable-background:new 0 0 2000 2000;" xml:space="preserve">
<path d="M875.61,1747.95H224.65V355.33h649.08l3.18,0.3c5.24,0.5,129.73,13.06,254.95,81.67c172.68,94.6,263.95,247.89,263.95,443.3
	c0,195.62-89.89,347.47-259.96,439.14c-123.42,66.53-246.16,76.76-251.33,77.16l-2.6,0.2H598.62v-133.98h277.51
	c14.92-1.58,108.71-13.22,199.6-63.21c123.48-67.91,186.09-175.35,186.09-319.32c0-144.23-64.24-253.21-190.94-323.93
	c-92.12-51.41-187.04-65.22-204.18-67.37H358.62v1124.67h515.36c10.99-0.37,203.35-8.33,391.07-104.89
	c249.58-128.39,376.12-349.43,376.12-656.98c0-206.87-62.74-372.68-186.46-492.83c-241.13-234.14-635.27-225.34-639.23-225.22
	l-1.97,0.03H247.23V0.1h565.45c12.84-0.29,120.4-1.71,259.34,27.25c85.49,17.82,165.6,43.55,238.1,76.48
	c92.06,41.81,172.1,95.41,237.92,159.32c150.7,146.33,227.11,344.48,227.11,588.94c0,198.66-47.66,370-141.66,509.26
	c-75.56,111.94-180.4,202.5-311.62,269.14c-219.42,111.44-436.42,117.24-445.55,117.43L875.61,1747.95z"/>
<rect x="532.9" y="812.43" width="133.98" height="1187.57"/>
</svg>
